Coordinates
version=1
nRows=10
nColumns=33
inDegrees=yes

Units are S.I. units (second, meters, Newtons, ...)
Angles are in degrees.

endheader
time	ground_thorax_rot_x	ground_thorax_rot_y	ground_thorax_rot_z	ground_thorax_tx	ground_thorax_ty	ground_thorax_tz	clav_prot_r	clav_elev_r	scapula_abduction_r	scapula_elevation_r	scapula_upward_rot_r	scapula_winging_r	shoulder_elv_r	plane_of_elev_r	axial_rot_r	elbow_flexion_r	pro_sup_r	wrist_flex_r	wrist_dev_r	clav_prot_l	clav_elev_l	scapula_abduction_l	scapula_elevation_l	scapula_upward_rot_l	scapula_winging_l	shoulder_elv_l	plane_of_elev_l	axial_rot_l	elbow_flexion_l	pro_sup_l	wrist_flex_l	wrist_dev_l
      7.46000000	    -39.67913271	     -5.90120675	      9.21054937	   -251.44209709	    833.11703827	      7.53237858	     10.29171086	    -45.00000000	     40.66676575	    -45.00000000	    -45.00000000	   3499.59603621	   -105.28360735	    146.64284133	    179.99999979	   1086.71738418	     61.59609240	     27.29365001	      9.78805654	     14.15114198	     37.42941471	    -35.06313145	    -45.00000000	    -45.00000000	  -3517.34051019	    809.66720158	     18.30961157	   -179.99999979	   1791.33169159	    119.31283259	      9.77129833	    -11.96765328
      7.47000000	    -39.70073673	     -5.88352875	      9.30056748	   -252.27865779	    832.71811703	      7.80991817	     10.04242005	    -45.00000000	     40.49625927	    -45.00000000	    -45.00000000	   3499.64613971	   -105.37605178	    146.70988090	    179.99999979	   1086.65047633	     61.44849889	     27.42189699	     10.10323334	     13.97058319	     37.55387119	    -34.85314856	    -45.00000000	    -45.00000000	  -3517.50400323	    809.65445103	     18.25075944	   -179.99999979	   1791.32376790	    119.36347882	      9.82654181	    -11.84730547
      7.48000000	    -39.69130961	     -5.90337056	      9.43875105	   -252.84214932	    832.26109536	      8.06165423	     10.11097232	    -45.00000000	     40.36899428	    -45.00000000	    -45.00000000	   3499.62948051	   -105.48163582	    146.74561371	    179.99999979	   1086.62624648	     61.11795529	     27.29195657	      9.99128267	     14.05812246	     37.36960698	    -34.68974422	    -45.00000000	    -45.00000000	  -3517.60101264	    809.52408152	     18.28485644	   -179.99999979	   1791.31487015	    119.38431212	      9.74960830	    -12.03899688
      7.49000000	    -39.70528767	     -5.88245619	      9.47349501	   -253.15961092	    831.75414093	      8.28332804	     10.09911846	    -45.00000000	     40.39569440	    -45.00000000	    -45.00000000	   3499.64788336	   -105.61587566	    146.83396383	    179.99999979	   1086.76574194	     60.70456459	     27.30877991	     10.10974777	     13.99837682	     37.49546851	    -34.62038224	    -45.00000000	    -45.00000000	  -3517.75067493	    809.44071599	     18.19124147	   -179.99999979	   1791.23684328	    119.46306689	      9.75299356	    -12.06544659
      7.50000000	    -39.72681912	     -5.95345986	      9.60035135	   -253.26281952	    831.21148136	      8.47042302	     10.12681956	    -45.00000000	     40.29487355	    -45.00000000	    -45.00000000	   3499.69791120	   -105.70030951	    146.85231614	    179.99999979	   1086.74371568	     60.22682609	     27.19218777	     10.12453681	     14.05938237	     37.33344480	    -34.52686628	    -45.00000000	    -45.00000000	  -3517.80576653	    809.34601813	     18.23608811	   -179.99999979	   1791.24835008	    119.48118880	      9.65704791	    -12.26582666
      7.51000000	    -39.76134825	     -5.95781716	      9.60539572	   -253.19163359	    830.64747842	      8.62249494	     10.11568104	    -45.00000000	     40.31946109	    -45.00000000	    -45.00000000	   3499.73592839	   -105.80867052	    146.90972210	    179.99999979	   1086.89623710	     59.69930150	     27.15835101	     10.20847969	     14.03650221	     37.45730748	    -34.49132420	    -45.00000000	    -45.00000000	  -3517.95893632	    809.31277319	     18.16421297	   -179.99999979	   1791.16587093	    119.50932328	      9.61073767	    -12.38715485
      7.52000000	    -39.76700477	     -6.03946550	      9.72441943	   -252.99000852	    830.08015607	      8.74365871	     10.13749133	    -45.00000000	     40.23301706	    -45.00000000	    -45.00000000	   3499.81452973	   -105.87128188	    146.92339829	    179.99999979	   1086.91598687	     59.17281725	     27.05335888	     10.26952013	     14.09002340	     37.31139430	    -34.45172192	    -45.00000000	    -45.00000000	  -3517.99614492	    809.25553005	     18.23517614	   -179.99999979	   1791.15813125	    119.47432218	      9.49468275	    -12.61033122
      7.53000000	    -39.82655336	     -6.04327380	      9.69696646	   -252.70340894	    829.53146555	      8.83875024	     10.11796730	    -45.00000000	     40.26657437	    -45.00000000	    -45.00000000	   3499.82273977	   -105.97028043	    146.99502379	    179.99999979	   1087.13688105	     58.63226512	     27.01699651	     10.34420077	     14.07061483	     37.46952507	    -34.45778287	    -45.00000000	    -45.00000000	  -3518.16739590	    809.28637118	     18.16357798	   -179.99999979	   1791.05214777	    119.45011846	      9.42579148	    -12.77188071
      7.54000000	    -39.88697739	     -6.16954626	      9.75261711	   -252.37348830	    829.02323890	      8.91458928	     10.15342963	    -45.00000000	     40.11498800	    -45.00000000	    -45.00000000	   3499.92682203	   -105.99429460	    146.95784976	    179.99999979	   1087.09394699	     58.15088589	     26.90949752	     10.43400837	     14.14063256	     37.25872016	    -34.40100555	    -45.00000000	    -45.00000000	  -3518.13168994	    809.24405601	     18.30585338	   -179.99999979	   1791.07257938	    119.36560857	      9.28525292	    -13.00224244
      7.55000000	    -39.92616169	     -6.09366180	      9.56158083	   -252.02916585	    828.57416936	      8.97850806	     10.09702907	    -45.00000000	     40.27481572	    -45.00000000	    -45.00000000	   3499.96633203	   -106.09108488	    146.98465917	    179.99999979	   1087.32798475	     57.62693865	     26.89562381	     10.52824361	     14.09427674	     37.51604008	    -34.45628162	    -45.00000000	    -45.00000000	  -3518.34605573	    809.29099049	     18.19439077	   -179.99999979	   1790.91129456	    119.31067772	      9.24141462	    -13.11869412
